Coordinates
version=1
nRows=25
nColumns=28
inDegrees=yes

Units are S.I. units (second, meters, Newtons, ...)
Angles are in degrees.

endheader
time	pelvis_tilt	pelvis_list	pelvis_rotation	pelvis_tx	pelvis_ty	pelvis_tz	hip_flexion_r	hip_adduction_r	hip_rotation_r	knee_angle_r	ankle_angle_r	subtalar_angle_r	mtp_angle_r	hip_flexion_l	hip_adduction_l	hip_rotation_l	knee_angle_l	socket_flexion	socket_adduction	socket_rotation	socket_tx	socket_ty	socket_tz	foot_flex	lumbar_extension	lumbar_bending	lumbar_rotation
      0.00000000	     -0.45355191	     -5.92432439	     -7.84356571	     -0.90857058	      0.98799715	      0.31036477	    -25.23365662	      6.93840639	      1.66790179	     -4.20892699	     13.50062571	      2.98663461	      7.00422624	     25.69457702	    -10.49529173	      6.58329504	      5.14181355	      5.71825747	      0.00000000	      0.00000000	      0.00000000	      0.00296780	      0.00000000	     -0.44105171	    -10.82477120	      4.75786361	     10.64967409
      0.00416667	     -0.48445216	     -5.99283124	     -7.87619174	     -0.90308715	      0.98727670	      0.31014507	    -25.29437510	      6.95497873	      1.67427813	     -4.61869686	     13.36277753	      2.89654524	      7.05400388	     25.45621129	    -10.50198673	      6.67406467	      5.17453983	      5.69189384	      0.00000000	      0.00000000	      0.00000000	      0.00251168	      0.00000000	     -0.78904929	    -10.78490480	      4.78659580	     10.70977246
      0.00833333	     -0.55688320	     -6.03323769	     -7.85089353	     -0.89711169	      0.98643555	      0.30985440	    -25.40959111	      6.97109329	      1.72652778	     -4.87260067	     13.30658955	      2.88349116	      7.06274956	     25.26850849	    -10.44491212	      6.73413111	      5.14767186	      5.67346905	      0.00000000	      0.00000000	      0.00000000	      0.00196408	      0.00000000	     -0.88447990	    -10.63527631	      4.81563736	     10.72207137
      0.01250000	     -0.50892326	     -6.16127522	     -8.11819808	     -0.89135403	      0.98588172	      0.30988373	    -25.33900246	      6.90906474	      1.56027740	     -5.70179252	     12.29750215	      2.73552899	     10.87230974	     24.63718531	    -10.63751655	      6.68077223	      5.83004202	      6.02963991	      0.00000000	      0.00000000	      0.00000000	      0.00144227	      0.00000000	     -1.37042944	    -10.76698217	      4.86838986	     11.12470720
      0.01666667	     -0.58899207	     -6.22917273	     -8.13801945	     -0.88520020	      0.98506974	      0.30959569	    -25.34068611	      6.92560052	      1.57914735	     -6.18175081	     12.12245514	      2.67609391	     10.85799578	     24.42456000	    -10.63338036	      6.82034037	      5.84826327	      6.00931035	      0.00000000	      0.00000000	      0.00000000	      0.00079729	      0.00000000	     -1.72864176	    -10.66478837	      4.91698717	     11.13488285
      0.02083333	     -0.67385986	     -6.26953619	     -8.12460955	     -0.87871103	      0.98422015	      0.30931069	    -25.42137224	      6.93257484	      1.63398816	     -6.51628983	     12.02897043	      2.65750449	     10.85238802	     24.21530057	    -10.58435540	      6.92729110	      5.82941489	      5.98886594	      0.00000000	      0.00000000	      0.00000000	      0.00011600	      0.00000000	     -1.87413017	    -10.50371500	      4.94776205	     11.14017580
      0.02500000	     -0.77180381	     -6.41193060	     -8.21728256	     -0.87255976	      0.98349858	      0.30900052	    -25.21686540	      6.97904471	      1.54958325	     -7.36568701	     11.69144372	      2.52128156	     10.84323612	     23.95811094	    -10.69177763	      7.10058640	      5.98914362	      6.06751593	      0.00000000	      0.00000000	      0.00000000	     -0.00061444	      0.00000000	     -2.41123065	    -10.45163524	      5.08239523	     11.18942171
      0.02916667	     -0.90343733	     -6.51394466	     -8.28774948	     -0.86614327	      0.98272980	      0.30873705	    -25.06308170	      7.00842831	      1.55827246	     -8.05830900	     11.45191939	      2.45831104	     10.88112083	     23.72728387	    -10.75453779	      7.26049518	      6.13618085	      6.16624997	      0.00000000	      0.00000000	      0.00000000	     -0.00133279	      0.00000000	     -2.72044621	    -10.30539322	      5.17999778	     11.25990460
      0.03333333	     -1.01917695	     -6.56971525	     -8.32736172	     -0.85957754	      0.98200365	      0.30845493	    -24.96112282	      7.00025903	      1.62163525	     -8.66441713	     11.21924291	      2.41755123	     10.90748653	     23.49840961	    -10.75574310	      7.44188361	      6.22078446	      6.22510410	      0.00000000	      0.00000000	      0.00000000	     -0.00212543	      0.00000000	     -3.01778295	    -10.15429812	      5.20190092	     11.29779109
      0.03750000	     -1.13723462	     -6.62688939	     -8.37752605	     -0.85298509	      0.98134968	      0.30816238	    -24.79567111	      6.98628967	      1.64222256	     -9.38080172	     10.91502953	      2.34134712	     10.93653290	     23.26126241	    -10.76195136	      7.59946649	      6.32602030	      6.31223065	      0.00000000	      0.00000000	      0.00000000	     -0.00292990	      0.00000000	     -3.34174806	    -10.00081415	      5.24188972	     11.33660733
      0.04166667	     -1.26894460	     -6.67047768	     -8.42818816	     -0.84632807	      0.98072441	      0.30786647	    -24.59081418	      6.95642668	      1.66409684	    -10.13865335	     10.57584953	      2.25675914	     10.98566311	     23.02534196	    -10.75904524	      7.74860302	      6.44720014	      6.40692830	      0.00000000	      0.00000000	      0.00000000	     -0.00374381	      0.00000000	     -3.63104338	     -9.82478480	      5.27422383	     11.37964108
      0.04583333	     -1.34580310	     -6.68161907	     -8.37205806	     -0.83928099	      0.98011142	      0.30750463	    -24.64457774	      6.93454452	      1.77801950	    -10.50882032	     10.45487173	      2.25314738	     10.99094987	     22.78733908	    -10.66009295	      7.86990310	      6.39661017	      6.42870025	      0.00000000	      0.00000000	      0.00000000	     -0.00477253	      0.00000000	     -3.71791965	     -9.61142453	      5.28115704	     11.38275860
      0.05000000	     -1.56531868	     -6.67295449	     -8.54776569	     -0.83286550	      0.97963305	      0.30736104	    -24.07314016	      6.81105034	      1.65790473	    -11.73293255	      9.76297609	      2.01780031	     11.12448121	     22.59216489	    -10.67939506	      7.97491439	      6.65312936	      6.64363987	      0.00000000	      0.00000000	      0.00000000	     -0.00540411	      0.00000000	     -4.12980674	     -9.40077791	      5.24459135	     11.43533419
      0.05416667	     -1.69404048	     -6.61871222	     -8.55662638	     -0.82619456	      0.97923474	      0.30705069	    -23.81466075	      6.71015326	      1.77037480	    -12.52911359	      9.35053861	      1.93320344	     11.22920461	     22.39480315	    -10.56544941	      8.14236039	      6.70252650	      6.74608866	      0.00000000	      0.00000000	      0.00000000	     -0.00616898	      0.00000000	     -4.39657051	     -9.20913850	      5.14305044	     11.44187975
      0.05833333	     -1.79712320	     -6.54894345	     -8.56152223	     -0.81950905	      0.97896597	      0.30678668	    -23.56207140	      6.59558831	      1.84715748	    -13.33576024	      8.91176207	      1.83180105	     11.30210426	     22.18365499	    -10.43624073	      8.29886622	      6.70737835	      6.84089738	      0.00000000	      0.00000000	      0.00000000	     -0.00688639	      0.00000000	     -4.59879628	     -9.04379831	      5.02253203	     11.42234653
      0.06250000	     -2.26571846	     -6.29730215	     -8.62933254	     -0.81252615	      0.97812581	      0.30653192	    -22.76190788	      6.27303007	      1.45452364	    -14.31553194	      6.97534502	      1.43999232	     17.71603446	     22.35734355	    -10.16634345	      8.29677764	      6.70049439	      6.95834061	      0.00000000	      0.00000000	      0.00000000	     -0.00758650	      0.00000000	     -4.77739041	     -8.35933291	      4.76298680	     11.47799859
      0.06666667	     -2.29119479	     -6.17458906	     -8.59185236	     -0.80589142	      0.97809289	      0.30617797	    -22.50084924	      6.09896802	      1.46837002	    -15.24439955	      6.42371395	      1.28882333	     17.63421909	     22.09231375	     -9.95278134	      8.38933669	      6.66323941	      7.05701563	      0.00000000	      0.00000000	      0.00000000	     -0.00829162	      0.00000000	     -4.96409364	     -8.27433022	      4.58495055	     11.35815191
      0.07083333	     -2.30743109	     -6.05046530	     -8.51272835	     -0.79929530	      0.97818562	      0.30583426	    -22.27645550	      5.96209841	      1.62608335	    -16.09639210	      5.96972068	      1.21417806	     17.57666279	     21.83950150	     -9.73798742	      8.59185330	      6.59539874	      7.14233675	      0.00000000	      0.00000000	      0.00000000	     -0.00888041	      0.00000000	     -5.11562441	     -8.20579956	      4.38186084	     11.27699153
      0.07500000	     -2.32327888	     -5.87687609	     -8.47712684	     -0.79281284	      0.97834707	      0.30546265	    -21.89930046	      5.73191315	      1.60616400	    -17.19958906	      5.30521830	      1.03420570	     17.49253985	     21.58397260	     -9.47751149	      8.66381143	      6.53515425	      7.25061495	      0.00000000	      0.00000000	      0.00000000	     -0.00942778	      0.00000000	     -5.27122120	     -8.15732298	      4.12552471	     11.15716082
      0.07916667	     -2.42454433	     -5.54042488	     -8.46851179	     -0.78598306	      0.97843577	      0.30522123	    -21.37414995	      5.31723255	      1.31797579	    -18.37123967	      4.52277211	      0.77350521	     17.48324350	     21.38609011	     -9.06542152	      8.48338282	      6.49323300	      7.37454397	      0.00000000	      0.00000000	      0.00000000	     -0.00984307	      0.00000000	     -5.36452745	     -7.89455247	      3.72456233	     11.00621756
      0.08333333	     -2.43615202	     -5.34515932	     -8.33999359	     -0.77941711	      0.97871710	      0.30481865	    -21.04112200	      5.12831307	      1.43708256	    -19.37203120	      3.98441670	      0.71456655	     17.47113094	     21.15562139	     -8.76421305	      8.64436747	      6.39814006	      7.49201440	      0.00000000	      0.00000000	      0.00000000	     -0.01030401	      0.00000000	     -5.45951407	     -7.82623195	      3.43097903	     10.90558600
      0.08750000	     -2.47784432	     -5.01763468	     -8.31204447	     -0.77283887	      0.97901362	      0.30446499	    -20.44255722	      4.70357278	      1.10531651	    -20.74744852	      3.11274988	      0.49946404	     17.46875540	     20.93174086	     -8.34569151	      8.47260162	      6.30525820	      7.60402946	      0.00000000	      0.00000000	      0.00000000	     -0.01064816	      0.00000000	     -5.54234983	     -7.68263780	      3.03181837	     10.72769641
      0.09166667	     -2.59547060	     -4.51612761	     -8.21225081	     -0.76613496	      0.97926050	      0.30419537	    -19.78494958	      4.15822534	      0.76894541	    -22.04558609	      2.33991868	      0.49037979	     17.69751215	     20.82154471	     -7.74699463	      8.35974352	      6.18938143	      7.72450291	      0.00000000	      0.00000000	      0.00000000	     -0.01067100	      0.00000000	     -5.58018539	     -7.40207520	      2.38931544	     10.54023017
      0.09583333	     -2.60799197	     -4.22259752	     -8.08167126	     -0.75966069	      0.97965040	      0.30367963	    -19.22752899	      3.81212447	      0.56493729	    -23.37113465	      1.59644572	      0.49329850	     17.83909059	     20.61433302	     -7.33704296	      8.35893088	      6.05371728	      7.83035525	      0.00000000	      0.00000000	      0.00000000	     -0.01095241	      0.00000000	     -5.62068159	     -7.31550873	      2.01593082	     10.37887543
      0.10000000	     -2.92334720	     -3.56974230	     -7.83742817	     -0.75286248	      0.97943099	      0.30299116	    -18.17350649	      3.04498049	     -0.41391178	    -24.96635931	      0.67768134	      1.38360492	     20.11859526	     20.84682315	     -6.52490932	      8.30025854	      5.68352797	      7.80802620	      0.00000000	      0.00000000	      0.00000000	     -0.01099215	      0.00000000	     -5.64174240	     -6.75857543	      1.27473702	     10.03446958
